<mxfile host="app.diagrams.net" agent="Mozilla/5.0 (Windows NT 10.0; Win64; x64) AppleWebKit/537.36 (KHTML, like Gecko) Chrome/137.0.0.0 Safari/537.36" version="27.1.4">
  <diagram name="Page-1" id="eZxGP1EHoln1Ul1YNqh1">
    <mxGraphModel dx="1678" dy="884" grid="1" gridSize="10" guides="1" tooltips="1" connect="1" arrows="1" fold="1" page="1" pageScale="1" pageWidth="827" pageHeight="1169" math="0" shadow="0">
      <root>
        <mxCell id="0" />
        <mxCell id="1" parent="0" />
        <mxCell id="M_ul0tHGno3XqRwtnDmW-5" style="edgeStyle=orthogonalEdgeStyle;rounded=0;orthogonalLoop=1;jettySize=auto;html=1;exitX=0.5;exitY=1;exitDx=0;exitDy=0;" edge="1" parent="1" source="M_ul0tHGno3XqRwtnDmW-1" target="M_ul0tHGno3XqRwtnDmW-2">
          <mxGeometry relative="1" as="geometry" />
        </mxCell>
        <mxCell id="M_ul0tHGno3XqRwtnDmW-1" value="User Frontend service" style="rounded=0;whiteSpace=wrap;html=1;" vertex="1" parent="1">
          <mxGeometry x="340" y="50" width="120" height="60" as="geometry" />
        </mxCell>
        <mxCell id="M_ul0tHGno3XqRwtnDmW-8" value="POST /post" style="edgeStyle=orthogonalEdgeStyle;rounded=0;orthogonalLoop=1;jettySize=auto;html=1;exitX=0.25;exitY=1;exitDx=0;exitDy=0;" edge="1" parent="1" source="M_ul0tHGno3XqRwtnDmW-2" target="M_ul0tHGno3XqRwtnDmW-7">
          <mxGeometry relative="1" as="geometry" />
        </mxCell>
        <mxCell id="M_ul0tHGno3XqRwtnDmW-26" value="PUT/follow" style="edgeStyle=orthogonalEdgeStyle;rounded=0;orthogonalLoop=1;jettySize=auto;html=1;exitX=0.75;exitY=1;exitDx=0;exitDy=0;" edge="1" parent="1" source="M_ul0tHGno3XqRwtnDmW-2" target="M_ul0tHGno3XqRwtnDmW-23">
          <mxGeometry relative="1" as="geometry" />
        </mxCell>
        <mxCell id="M_ul0tHGno3XqRwtnDmW-29" value="GET /feed..." style="edgeStyle=orthogonalEdgeStyle;rounded=0;orthogonalLoop=1;jettySize=auto;html=1;exitX=0.5;exitY=1;exitDx=0;exitDy=0;entryX=0.5;entryY=0;entryDx=0;entryDy=0;" edge="1" parent="1" source="M_ul0tHGno3XqRwtnDmW-2" target="M_ul0tHGno3XqRwtnDmW-28">
          <mxGeometry relative="1" as="geometry" />
        </mxCell>
        <mxCell id="M_ul0tHGno3XqRwtnDmW-2" value="Load balancer" style="rounded=0;whiteSpace=wrap;html=1;" vertex="1" parent="1">
          <mxGeometry x="120" y="140" width="560" height="60" as="geometry" />
        </mxCell>
        <mxCell id="M_ul0tHGno3XqRwtnDmW-7" value="Post Creation Service" style="rounded=0;whiteSpace=wrap;html=1;" vertex="1" parent="1">
          <mxGeometry x="125" y="270" width="120" height="60" as="geometry" />
        </mxCell>
        <mxCell id="M_ul0tHGno3XqRwtnDmW-12" style="edgeStyle=orthogonalEdgeStyle;rounded=0;orthogonalLoop=1;jettySize=auto;html=1;exitX=0.5;exitY=1;exitDx=0;exitDy=0;entryX=0.75;entryY=0;entryDx=0;entryDy=0;" edge="1" parent="1" source="M_ul0tHGno3XqRwtnDmW-9" target="M_ul0tHGno3XqRwtnDmW-2">
          <mxGeometry relative="1" as="geometry" />
        </mxCell>
        <mxCell id="M_ul0tHGno3XqRwtnDmW-9" value="User Frontend service" style="rounded=0;whiteSpace=wrap;html=1;" vertex="1" parent="1">
          <mxGeometry x="490" y="50" width="120" height="60" as="geometry" />
        </mxCell>
        <mxCell id="M_ul0tHGno3XqRwtnDmW-11" style="edgeStyle=orthogonalEdgeStyle;rounded=0;orthogonalLoop=1;jettySize=auto;html=1;exitX=0.5;exitY=1;exitDx=0;exitDy=0;entryX=0.25;entryY=0;entryDx=0;entryDy=0;" edge="1" parent="1" source="M_ul0tHGno3XqRwtnDmW-10" target="M_ul0tHGno3XqRwtnDmW-2">
          <mxGeometry relative="1" as="geometry" />
        </mxCell>
        <mxCell id="M_ul0tHGno3XqRwtnDmW-10" value="User Frontend service" style="rounded=0;whiteSpace=wrap;html=1;" vertex="1" parent="1">
          <mxGeometry x="190" y="50" width="120" height="60" as="geometry" />
        </mxCell>
        <mxCell id="M_ul0tHGno3XqRwtnDmW-13" value="Post Storage" style="sketch=0;points=[[0,0,0],[0.25,0,0],[0.5,0,0],[0.75,0,0],[1,0,0],[0,1,0],[0.25,1,0],[0.5,1,0],[0.75,1,0],[1,1,0],[0,0.25,0],[0,0.5,0],[0,0.75,0],[1,0.25,0],[1,0.5,0],[1,0.75,0]];outlineConnect=0;dashed=0;verticalLabelPosition=bottom;verticalAlign=top;align=center;html=1;fontSize=12;fontStyle=0;aspect=fixed;shape=mxgraph.aws4.resourceIcon;resIcon=mxgraph.aws4.documentdb_with_mongodb_compatibility;" vertex="1" parent="1">
          <mxGeometry x="242" y="590" width="98" height="98" as="geometry" />
        </mxCell>
        <mxCell id="M_ul0tHGno3XqRwtnDmW-18" style="edgeStyle=orthogonalEdgeStyle;rounded=0;orthogonalLoop=1;jettySize=auto;html=1;exitX=0.5;exitY=1;exitDx=0;exitDy=0;exitPerimeter=0;" edge="1" parent="1" source="M_ul0tHGno3XqRwtnDmW-14" target="M_ul0tHGno3XqRwtnDmW-17">
          <mxGeometry relative="1" as="geometry" />
        </mxCell>
        <mxCell id="M_ul0tHGno3XqRwtnDmW-14" value="Post Creation Queue" style="verticalLabelPosition=middle;html=1;verticalAlign=middle;align=right;shape=mxgraph.azure.queue_generic;pointerEvents=1;labelPosition=left;" vertex="1" parent="1">
          <mxGeometry x="120" y="380" width="130" height="45" as="geometry" />
        </mxCell>
        <mxCell id="M_ul0tHGno3XqRwtnDmW-15" style="edgeStyle=orthogonalEdgeStyle;rounded=0;orthogonalLoop=1;jettySize=auto;html=1;exitX=0.5;exitY=1;exitDx=0;exitDy=0;entryX=0.5;entryY=0;entryDx=0;entryDy=0;entryPerimeter=0;" edge="1" parent="1" source="M_ul0tHGno3XqRwtnDmW-7" target="M_ul0tHGno3XqRwtnDmW-14">
          <mxGeometry relative="1" as="geometry" />
        </mxCell>
        <mxCell id="M_ul0tHGno3XqRwtnDmW-19" style="edgeStyle=orthogonalEdgeStyle;rounded=0;orthogonalLoop=1;jettySize=auto;html=1;exitX=0.5;exitY=1;exitDx=0;exitDy=0;entryX=0;entryY=0.25;entryDx=0;entryDy=0;entryPerimeter=0;" edge="1" parent="1" source="M_ul0tHGno3XqRwtnDmW-17" target="M_ul0tHGno3XqRwtnDmW-13">
          <mxGeometry relative="1" as="geometry" />
        </mxCell>
        <mxCell id="M_ul0tHGno3XqRwtnDmW-21" style="edgeStyle=orthogonalEdgeStyle;rounded=0;orthogonalLoop=1;jettySize=auto;html=1;exitX=1;exitY=0.5;exitDx=0;exitDy=0;" edge="1" parent="1" source="M_ul0tHGno3XqRwtnDmW-17" target="M_ul0tHGno3XqRwtnDmW-20">
          <mxGeometry relative="1" as="geometry" />
        </mxCell>
        <mxCell id="M_ul0tHGno3XqRwtnDmW-17" value="Post Creation processor" style="rounded=0;whiteSpace=wrap;html=1;" vertex="1" parent="1">
          <mxGeometry x="125" y="480" width="120" height="60" as="geometry" />
        </mxCell>
        <mxCell id="M_ul0tHGno3XqRwtnDmW-20" value="Post LRU Cache" style="image;sketch=0;aspect=fixed;html=1;points=[];align=center;fontSize=12;image=img/lib/mscae/Cache_Redis_Product.svg;" vertex="1" parent="1">
          <mxGeometry x="340" y="476.4" width="80" height="67.2" as="geometry" />
        </mxCell>
        <mxCell id="M_ul0tHGno3XqRwtnDmW-22" value="Users DB" style="sketch=0;points=[[0,0,0],[0.25,0,0],[0.5,0,0],[0.75,0,0],[1,0,0],[0,1,0],[0.25,1,0],[0.5,1,0],[0.75,1,0],[1,1,0],[0,0.25,0],[0,0.5,0],[0,0.75,0],[1,0.25,0],[1,0.5,0],[1,0.75,0]];outlineConnect=0;dashed=0;verticalLabelPosition=bottom;verticalAlign=top;align=center;html=1;fontSize=12;fontStyle=0;aspect=fixed;shape=mxgraph.aws4.resourceIcon;resIcon=mxgraph.aws4.documentdb_with_mongodb_compatibility;" vertex="1" parent="1">
          <mxGeometry x="540" y="461" width="98" height="98" as="geometry" />
        </mxCell>
        <mxCell id="M_ul0tHGno3XqRwtnDmW-23" value="Following Service" style="rounded=0;whiteSpace=wrap;html=1;" vertex="1" parent="1">
          <mxGeometry x="570" y="270" width="120" height="60" as="geometry" />
        </mxCell>
        <mxCell id="M_ul0tHGno3XqRwtnDmW-27" style="edgeStyle=orthogonalEdgeStyle;rounded=0;orthogonalLoop=1;jettySize=auto;html=1;exitX=0.5;exitY=1;exitDx=0;exitDy=0;entryX=1;entryY=0.75;entryDx=0;entryDy=0;entryPerimeter=0;" edge="1" parent="1" source="M_ul0tHGno3XqRwtnDmW-23" target="M_ul0tHGno3XqRwtnDmW-22">
          <mxGeometry relative="1" as="geometry" />
        </mxCell>
        <mxCell id="M_ul0tHGno3XqRwtnDmW-30" style="edgeStyle=orthogonalEdgeStyle;rounded=0;orthogonalLoop=1;jettySize=auto;html=1;exitX=0.5;exitY=1;exitDx=0;exitDy=0;" edge="1" parent="1" source="M_ul0tHGno3XqRwtnDmW-28" target="M_ul0tHGno3XqRwtnDmW-20">
          <mxGeometry relative="1" as="geometry" />
        </mxCell>
        <mxCell id="M_ul0tHGno3XqRwtnDmW-32" style="edgeStyle=orthogonalEdgeStyle;rounded=0;orthogonalLoop=1;jettySize=auto;html=1;exitX=1;exitY=0.75;exitDx=0;exitDy=0;" edge="1" parent="1" source="M_ul0tHGno3XqRwtnDmW-28" target="M_ul0tHGno3XqRwtnDmW-22">
          <mxGeometry relative="1" as="geometry" />
        </mxCell>
        <mxCell id="M_ul0tHGno3XqRwtnDmW-34" style="edgeStyle=orthogonalEdgeStyle;rounded=0;orthogonalLoop=1;jettySize=auto;html=1;exitX=0;exitY=0.25;exitDx=0;exitDy=0;" edge="1" parent="1" source="M_ul0tHGno3XqRwtnDmW-28" target="M_ul0tHGno3XqRwtnDmW-33">
          <mxGeometry relative="1" as="geometry" />
        </mxCell>
        <mxCell id="M_ul0tHGno3XqRwtnDmW-28" value="Get Feed Service" style="rounded=0;whiteSpace=wrap;html=1;" vertex="1" parent="1">
          <mxGeometry x="414" y="360" width="120" height="60" as="geometry" />
        </mxCell>
        <mxCell id="M_ul0tHGno3XqRwtnDmW-31" style="edgeStyle=orthogonalEdgeStyle;rounded=0;orthogonalLoop=1;jettySize=auto;html=1;exitX=0.75;exitY=1;exitDx=0;exitDy=0;entryX=1;entryY=0.25;entryDx=0;entryDy=0;entryPerimeter=0;" edge="1" parent="1" source="M_ul0tHGno3XqRwtnDmW-28" target="M_ul0tHGno3XqRwtnDmW-13">
          <mxGeometry relative="1" as="geometry" />
        </mxCell>
        <mxCell id="M_ul0tHGno3XqRwtnDmW-33" value="Next page cache" style="image;sketch=0;aspect=fixed;html=1;points=[];align=center;fontSize=12;image=img/lib/mscae/Cache_Redis_Product.svg;" vertex="1" parent="1">
          <mxGeometry x="290" y="312.8" width="80" height="67.2" as="geometry" />
        </mxCell>
      </root>
    </mxGraphModel>
  </diagram>
</mxfile>
